nColumns=19
nRows=64
DataType=double
version=3
OpenSimVersion=4.1
endheader
time	ground_force_calcn_r_vx	ground_force_calcn_r_vy	ground_force_calcn_r_vz	ground_force_calcn_r_px	ground_force_calcn_r_py	ground_force_calcn_r_pz	ground_force_calcn_r_mx	ground_force_calcn_r_my	ground_force_calcn_r_mz	ground_force_calcn_l_vx	ground_force_calcn_l_vy	ground_force_calcn_l_vz	ground_force_calcn_l_px	ground_force_calcn_l_py	ground_force_calcn_l_pz	ground_force_calcn_l_mx	ground_force_calcn_l_my	ground_force_calcn_l_mz
6.5	-17.2516	395.374	-23.2748	-0.236867	0	-0.472016	0.286821	-6.57338	0.386961	6.3785	529.472	22.9519	-0.215618	0	-0.810216	0.0203379	1.68823	0.0731823
6.51	-16.793	394.085	-23.9264	-0.237075	0	-0.471963	0.274982	-6.45304	0.391789	6.81462	527.095	23.1383	-0.216155	0	-0.810166	0.0212118	1.64068	0.0720224
6.52	-16.2381	392.559	-24.5784	-0.237337	0	-0.471931	0.261709	-6.32686	0.396129	7.33397	524.567	23.3696	-0.216778	0	-0.810117	0.022074	1.57886	0.0703386
6.53	-15.5878	390.829	-25.2348	-0.237653	0	-0.471917	0.247166	-6.19713	0.400133	7.9125	521.918	23.6541	-0.217479	0	-0.810074	0.0227956	1.50362	0.0681464
6.54	-14.8472	388.954	-25.902	-0.23802	0	-0.471921	0.231549	-6.06591	0.403953	8.52652	519.183	23.9976	-0.218249	0	-0.810042	0.0232621	1.41644	0.0654705
6.55	-14.0254	387.007	-26.5862	-0.238436	0	-0.471938	0.215082	-5.93481	0.407704	9.15424	516.409	24.4044	-0.219081	0	-0.810024	0.0233887	1.3194	0.0623522
6.56	-13.1338	385.059	-27.2914	-0.2389	0	-0.471967	0.197991	-5.80471	0.411414	9.77662	513.656	24.877	-0.219968	0	-0.810028	0.0231279	1.21512	0.05885
6.57	-12.186	383.165	-28.0168	-0.239405	0	-0.472007	0.180508	-5.6757	0.415004	10.3769	510.989	25.4175	-0.220903	0	-0.810054	0.0224704	1.10651	0.0550397
6.58	-11.1976	381.364	-28.7575	-0.239947	0	-0.472057	0.162877	-5.5472	0.418298	10.9403	508.469	26.0268	-0.221878	0	-0.810108	0.0214439	0.996636	0.0510146
6.59	-10.1848	379.676	-29.5042	-0.240517	0	-0.472118	0.145344	-5.41823	0.421045	11.456	506.141	26.7045	-0.222884	0	-0.810194	0.0201128	0.88861	0.0468838
6.6	-9.16364	378.104	-30.2449	-0.24111	0	-0.472188	0.128148	-5.28758	0.422958	11.9182	504.04	27.4474	-0.223913	0	-0.810312	0.0185747	0.785553	0.0427771
6.61	-8.14965	376.635	-30.9656	-0.24172	0	-0.472269	0.11152	-5.15389	0.423735	12.327	502.184	28.2503	-0.22495	0	-0.810465	0.0169482	0.690446	0.0388409
6.62	-7.157	375.244	-31.6521	-0.242342	0	-0.472359	0.0956693	-5.01598	0.423101	12.6863	500.58	29.1063	-0.225981	0	-0.810653	0.0153553	0.605894	0.0352298
6.63	-6.19906	373.895	-32.2911	-0.242967	0	-0.472457	0.0807948	-4.87312	0.420863	13.0022	499.223	30.0081	-0.226992	0	-0.810877	0.0139039	0.533846	0.0320892
6.64	-5.28867	372.543	-32.8716	-0.243589	0	-0.472562	0.0670801	-4.72525	0.416935	13.2807	498.096	30.9491	-0.227963	0	-0.811136	0.0126804	0.47558	0.0295501
6.65	-4.43696	371.138	-33.385	-0.244197	0	-0.472667	0.0546687	-4.57287	0.411343	13.5267	497.168	31.9236	-0.228879	0	-0.811432	0.0117465	0.431735	0.0277221
6.66	-3.65264	369.622	-33.8252	-0.244778	0	-0.472769	0.0436488	-4.41696	0.404208	13.7394	496.389	32.9257	-0.229721	0	-0.811763	0.01114	0.402479	0.0266966
6.67	-2.94212	367.941	-34.1882	-0.245324	0	-0.472864	0.0340542	-4.25881	0.395719	13.9095	495.701	33.949	-0.230466	0	-0.812131	0.0108807	0.387764	0.0265567
6.68	-2.30928	366.049	-34.4724	-0.245821	0	-0.472945	0.0258657	-4.10002	0.386116	14.0206	495.041	34.9863	-0.231097	0	-0.812535	0.010976	0.387541	0.0273889
6.69	-1.75495	363.911	-34.678	-0.24626	0	-0.47301	0.0190121	-3.94241	0.375682	14.0516	494.346	36.0309	-0.231595	0	-0.812974	0.0114194	0.401743	0.0292815
6.7	-1.27631	361.509	-34.8087	-0.246633	0	-0.473053	0.0133733	-3.78794	0.36473	13.9814	493.558	37.0777	-0.231946	0	-0.813446	0.0121883	0.430261	0.0323226
6.71	-0.868291	358.837	-34.8718	-0.246934	0	-0.473071	0.00880429	-3.63854	0.353593	13.7931	492.628	38.1239	-0.232143	0	-0.813949	0.0132407	0.4729	0.0365972
6.72	-0.524124	355.903	-34.8776	-0.247161	0	-0.47306	0.0051484	-3.49599	0.342598	13.4775	491.516	39.1688	-0.232184	0	-0.814482	0.0145123	0.529253	0.042176
6.73	-0.235883	352.719	-34.8374	-0.247312	0	-0.473017	0.00224828	-3.36188	0.332047	13.0339	490.191	40.212	-0.232076	0	-0.81504	0.0159144	0.598524	0.049099
6.74	0.0043975	349.299	-34.7624	-0.247388	0	-0.47294	-4.07591e-05	-3.23755	0.322202	12.4686	488.63	41.253	-0.231829	0	-0.815623	0.0173389	0.679493	0.0573668
6.75	0.203774	345.652	-34.6626	-0.247392	0	-0.472827	-0.00184177	-3.1241	0.313291	11.7934	486.821	42.2898	-0.231457	0	-0.816228	0.0186668	0.770547	0.0669368
6.76	0.367285	341.783	-34.547	-0.247326	0	-0.472677	-0.00324802	-3.0225	0.30551	11.0239	484.758	43.318	-0.230978	0	-0.816849	0.0197783	0.869715	0.0777178
6.77	0.497675	337.694	-34.4229	-0.247197	0	-0.472488	-0.00432338	-2.93361	0.299038	10.1764	482.446	44.3319	-0.230407	0	-0.817482	0.0205608	0.974756	0.0895703
6.78	0.596766	333.393	-34.2972	-0.247015	0	-0.472262	-0.00511596	-2.85811	0.294023	9.26642	479.898	45.3245	-0.229764	0	-0.818122	0.0209191	1.08338	0.102321
6.79	0.666727	328.892	-34.1764	-0.246789	0	-0.471997	-0.00566863	-2.7963	0.290574	8.30939	477.138	46.2881	-0.229066	0	-0.818766	0.0207865	1.19359	0.115793
6.8	0.708049	324.214	-34.0684	-0.246531	0	-0.471695	-0.00600137	-2.74801	0.288761	7.3207	474.194	47.2155	-0.228332	0	-0.819408	0.0201292	1.30386	0.129825
6.81	0.717416	319.393	-33.9821	-0.246247	0	-0.471358	-0.00609331	-2.71274	0.288624	6.31539	471.099	48.1017	-0.22758	0	-0.820044	0.0189413	1.41294	0.144268
6.82	0.688556	314.475	-33.928	-0.245943	0	-0.470986	-0.00588925	-2.68971	0.290187	5.30766	467.884	48.944	-0.226826	0	-0.820671	0.0172422	1.51995	0.158997
6.83	0.613522	309.514	-33.9179	-0.245621	0	-0.470582	-0.00530856	-2.6781	0.293478	4.31095	464.576	49.7406	-0.226085	0	-0.821284	0.0150737	1.62444	0.173924
6.84	0.485231	304.571	-33.9644	-0.245282	0	-0.470144	-0.00426488	-2.67699	0.298526	3.33857	461.189	50.4903	-0.225368	0	-0.821881	0.0124972	1.72635	0.188999
6.85	0.300509	299.701	-34.079	-0.244929	0	-0.469674	-0.00269266	-2.68542	0.305359	2.40442	457.721	51.1917	-0.224689	0	-0.822458	0.00959152	1.82591	0.20421
6.86	0.0608407	294.951	-34.2708	-0.244564	0	-0.469171	-0.000557428	-2.70236	0.313992	1.52143	454.153	51.8446	-0.224052	0	-0.823014	0.00644334	1.92337	0.219565
6.87	-0.228973	290.351	-34.5462	-0.244191	0	-0.468636	0.00215039	-2.72682	0.324439	0.700376	450.451	52.4494	-0.223461	0	-0.823549	0.0031391	2.01893	0.23508
6.88	-0.561338	285.917	-34.9083	-0.243812	0	-0.468066	0.00541437	-2.7578	0.336706	-0.0511915	446.572	53.0078	-0.222921	0	-0.824061	-0.000242184	2.11271	0.250778
6.89	-0.925847	281.65	-35.3581	-0.243437	0	-0.46746	0.00918543	-2.79428	0.350791	-0.729184	442.478	53.5235	-0.22243	0	-0.824553	-0.00363344	2.20482	0.266702
6.9	-1.30864	277.551	-35.8961	-0.243074	0	-0.466819	0.0133681	-2.83525	0.366687	-1.33176	438.143	54.0011	-0.221988	0	-0.825027	-0.00697736	2.29552	0.282923
6.91	-1.69254	273.634	-36.5225	-0.242736	0	-0.466139	0.017812	-2.87968	0.384358	-1.85919	433.551	54.4457	-0.221594	0	-0.825485	-0.0102282	2.38515	0.299529
6.92	-2.05918	269.926	-37.2375	-0.242435	0	-0.465422	0.0223262	-2.92662	0.40374	-2.31446	428.704	54.8626	-0.221247	0	-0.825931	-0.0133573	2.47415	0.316625
6.93	-2.39216	266.476	-38.0416	-0.242182	0	-0.464666	0.0267085	-2.9752	0.424734	-2.70334	423.625	55.2562	-0.220945	0	-0.826365	-0.0163557	2.56301	0.33431
6.94	-2.67895	263.338	-38.936	-0.241984	0	-0.463876	0.0307686	-3.02453	0.447193	-3.03346	418.348	55.6297	-0.220685	0	-0.826792	-0.0192305	2.6521	0.352663
6.95	-2.91046	260.57	-39.9226	-0.241843	0	-0.463053	0.0343307	-3.07359	0.470912	-3.31361	412.91	55.9865	-0.220462	0	-0.827215	-0.0220008	2.74153	0.371724
6.96	-3.07967	258.223	-41.0036	-0.24176	0	-0.462202	0.0372246	-3.12119	0.495618	-3.55473	407.343	56.3302	-0.220268	0	-0.827637	-0.0247055	2.83105	0.391497
6.97	-3.1812	256.335	-42.1808	-0.241731	0	-0.461331	0.0392899	-3.16591	0.520961	-3.77227	401.672	56.6663	-0.220092	0	-0.828065	-0.0274238	2.9201	0.411956
6.98	-3.2106	254.935	-43.4544	-0.241755	0	-0.460445	0.0403778	-3.20616	0.546499	-3.98425	395.917	57.0016	-0.21992	0	-0.828502	-0.0302689	3.00784	0.43305
6.99	-3.16366	254.037	-44.8207	-0.241828	0	-0.459554	0.0403524	-3.24024	0.571687	-4.20669	390.106	57.3441	-0.219741	0	-0.828956	-0.0333554	3.09321	0.454689
7	-3.03593	253.643	-46.2717	-0.241949	0	-0.458663	0.0390962	-3.26637	0.595879	-4.45004	384.284	57.7025	-0.219546	0	-0.829431	-0.0367666	3.17499	0.476743
7.01	-2.82294	253.737	-47.7934	-0.242114	0	-0.457785	0.0365233	-3.28285	0.618352	-4.7165	378.512	58.0852	-0.219334	0	-0.829929	-0.0405229	3.25207	0.499052
7.02	-2.52175	254.283	-49.3653	-0.242318	0	-0.456928	0.0326087	-3.28813	0.638341	-4.99925	372.865	58.4983	-0.219107	0	-0.83045	-0.0445628	3.32368	0.521449
7.03	-2.13423	255.236	-50.9618	-0.24255	0	-0.4561	0.0274342	-3.2809	0.655083	-5.2837	367.42	58.9444	-0.218876	0	-0.830993	-0.0487423	3.38946	0.543763
7.04	-1.66895	256.535	-52.5533	-0.242795	0	-0.455307	0.0212087	-3.26002	0.66784	-5.54927	362.246	59.4209	-0.21865	0	-0.831553	-0.0528397	3.44927	0.565801
7.05	-1.14038	258.107	-54.1068	-0.243033	0	-0.454555	0.0142465	-3.22446	0.675943	-5.77161	357.388	59.9198	-0.218445	0	-0.832123	-0.0565733	3.50311	0.587334
7.06	-0.569135	259.852	-55.5864	-0.243238	0	-0.453843	0.0069504	-3.17337	0.678834	-5.92656	352.871	60.4291	-0.21827	0	-0.832693	-0.0596363	3.55078	0.608071
7.07	0.0185086	261.66	-56.9547	-0.24338	0	-0.453169	-0.000219712	-3.10612	0.676097	-5.9941	348.7	60.9338	-0.218138	0	-0.833254	-0.0617393	3.59162	0.627619
7.08	0.59454	263.421	-58.1741	-0.243429	0	-0.452531	-0.00682164	-3.02244	0.667478	-5.96172	344.871	61.4175	-0.218051	0	-0.833795	-0.0626585	3.62464	0.645506
7.09	1.13285	265.037	-59.2093	-0.243358	0	-0.451924	-0.0124916	-2.92247	0.652881	-5.82722	341.37	61.8632	-0.218008	0	-0.834312	-0.0622807	3.64853	0.661188
7.1	1.61248	266.43	-60.03	-0.243147	0	-0.451347	-0.0169866	-2.80668	0.632381	-5.59882	338.187	62.2529	-0.218007	0	-0.834795	-0.060622	3.66177	0.674053
7.11	2.01929	267.552	-60.6133	-0.24278	0	-0.450797	-0.0201981	-2.67621	0.606289	-5.29255	335.316	62.5675	-0.218035	0	-0.835237	-0.0578147	3.66292	0.683474
7.12	2.34622	268.391	-60.9473	-0.242254	0	-0.450275	-0.022143	-2.533	0.575204	-4.92774	332.761	62.7882	-0.218084	0	-0.835631	-0.0540632	3.65078	0.688861
7.13	2.59423	268.967	-61.0309	-0.241573	0	-0.449782	-0.0229548	-2.37993	0.540026	-4.52286	330.541	62.8976	-0.218148	0	-0.835967	-0.0495965	3.62463	0.68972
